<svg xmlns="http://www.w3.org/2000/svg" viewBox="-3740 198 2180 457">
  <path d="M-1787.68,203.04c105.46,14.88,187.44,96.32,204.06,200.82-1.59,19.47,2.16,41.98,0,61.01-22.32,196.81-279.39,269.75-408.18,120.81-120.28-139.11-33.88-363.07,148-382.64h56.12ZM-1815.73,650.44c184.76,2.09,286.32-216.29,165.86-357.22-131.14-153.42-384.76-57.77-382.67,141.14h38.26c-3.37,96.1,82.12,181.5,178.55,177.94v38.13Z"/>
  <path d="M-2897.24,543.67h-153.04v-25.42h-119.88v25.42h-153.04v-169.04c0-28.2,48.53-49.79,72.58-52.22,43.91-4.43,280.68-4.74,311.75,7.29,12.97,5.02,41.64,28.6,41.64,42.39v171.59ZM-3047.73,477.58v-69.91c0-59.38-119.88-53.39-119.88-5.08v74.99h119.88Z"/>
  <path d="M-2469.32,323.18c57.56-8.12,230.42-6.76,290.19-.74,84.07,8.47,81.13,91.9,72.57,158.9-4.62,36.12-32.31,58.1-67.61,62.26-60.58,7.14-229.71,6.81-290.79.15-80.69-8.79-78.39-94.96-69.77-158.66,4.79-35.36,30.79-57.03,65.42-61.91ZM-2329.04,363.87c-61.49,8.22-63.91,105.46-25.76,128.55,100.36,60.74,135.87-118.33,47.81-128.97-7.32-.88-14.77-.55-22.06.42Z"/>
  <path d="M-3417.59,396.23h-158.14c-2.28,0-9.37-23.07-32.61-29.79-119.66-34.61-107.56,180.01,7.23,130.33,11.95-5.17,27.21-26.83,29.2-26.83h154.32c3.57,30.18-13.99,55.78-41.64,66.54-27.63,10.75-285.95,12.4-323.72,6.51-31.09-4.85-57.25-29.6-60.73-61.5-6.85-62.88-13.76-147.56,65.88-158.27,52.89-7.12,244.94-7.67,297.04-.05,36.11,5.28,68.35,34.3,63.16,73.05Z"/>
  <rect x="-2792.66" y="322.52" width="153.04" height="221.16"/>
  <path d="M-1839.25,262.22c239.08-27.22,263.72,321.59,47.41,344.66-238.25,25.41-264.9-319.9-47.41-344.66ZM-1815.75,594.53c207.7-7.83,215.08-300.91,8.93-320.38l-8.93.06.03,30.53c-172.52,5.19-172.53,253.73,0,259.26l-.03,30.53Z"/>
  <path d="M-1826.46,310.58c172.53-12.1,178.72,244.73,14.59,248.47-161.33,3.68-170.18-237.56-14.59-248.47ZM-1815.75,543.68c146.41-1.5,146.31-217.19,0-218.64l-.15,27.83c-106.9,8.3-106.71,154.28-.15,163.14l.3,27.67Z"/>
  <path d="M-1831.69,361.26c105.38-18.05,120.43,131.71,31.9,146.19-105.21,17.2-119.67-131.15-31.9-146.19ZM-1823.98,374.02c-74.32,8.44-66.65,125.23,11.94,121.38,80.61-3.95,73.44-131.08-11.94-121.38Z"/>
</svg>
