<svg xmlns="http://www.w3.org/2000/svg" viewBox="0 0 536.09 257.69">
  <path d="M4.02,88.85h28.5c0,6.91,6.74,11.3,13.99,11.3c9.27,0,13.49-4.38,13.49-10.12c0-6.74-1.85-8.94-16.86-13.66 C29.48,72.15,7.22,66.25,7.22,39.27c0-20.91,18.21-37.43,41.48-37.43c22.59,0,40.8,16.69,40.8,37.77H60.84 c0-7.25-4.89-10.96-12.48-10.96c-8.6,0-12.48,3.54-12.48,8.43c0,3.54,0.34,7.42,14.84,11.97c14.33,4.72,37.94,10.12,37.94,39.29 c0,22.26-19.22,38.95-42.49,38.95C23.24,127.29,4.02,109.92,4.02,88.85"/>
  <path d="M99.95,64.56c0-35.74,27.65-62.55,62.55-62.55c17.37,0,33.55,7.25,44.85,19.05l-16.86,18.38 c-6.24-6.24-15.17-10.12-27.99-10.12c-18.71,0-32.37,13.49-32.37,35.24c0,22.26,13.66,35.75,32.37,35.75 c12.31,0,20.74-3.37,26.98-9.44l16.86,18.55c-11.13,11.46-26.64,18.04-43.84,18.04C127.6,127.46,99.95,101.15,99.95,64.56"/>
  <path d="M207.01,64.73c0-34.73,28.16-62.55,62.55-62.55c34.73,0,62.72,27.82,62.72,62.55 c0,34.57-27.99,62.72-62.72,62.72C235.17,127.46,207.01,99.3,207.01,64.73 M303.62,64.73c0-20.57-13.49-35.74-34.06-35.74 c-20.4,0-33.72,15.17-33.72,35.74c0,20.4,13.32,35.74,33.72,35.74C290.13,100.48,303.62,85.13,303.62,64.73"/>
  <path d="M350.15,4.2h41.48c23.44,0,42.15,18.55,42.15,41.98c0,14.5-7.42,26.64-17.7,34.57l21.24,44.01h-32.37 l-17.37-36.42h-8.26v36.42h-28.83L350.15,4.2z M391.63,61.19c7.25,0,12.98-5.56,12.98-15.01c0-9.27-5.73-15.34-12.98-15.34h-12.31 v30.35H391.63z"/>
  <polygon points="454.34,4.54 532.07,4.54 532.07,31.18 483.18,31.18 483.18,51.08 522.29,51.08 522.29,78.05 483.18,78.05 483.18,98.12 532.07,98.12 532.07,124.93 454.34,124.93"/>
  <path d="M9.1,198.63c0-31.84,25.38-57.22,57.07-57.22c15.69,0,33.07,5.85,42.3,17.38l-15.69,17.23 c-6.92-6.92-13.54-10.46-26.61-10.46c-16.92,0-30.76,14-30.76,33.07c0,18.77,13.84,32.92,30.76,32.92 c9.69,0,15.54-1.69,21.69-7.38V211.7H66.16v-24.61h47.69v43.38c-4.92,7.85-20.92,25.38-47.69,25.38 C34.48,255.85,9.1,230.16,9.1,198.63"/>
  <path d="M347.34,213.7v-69.99h26.46v71.68c0,10.15,5.54,15.84,17.23,15.84c11.54,0,17.54-5.69,17.54-15.84 l-0.15-71.68h26.3v69.99c0,24.77-17.54,42.15-43.69,42.15C365.03,255.85,347.34,238.47,347.34,213.7"/>
  <path d="M457.01,143.71h36.61c21.38,0,38.46,16.92,38.46,38.3c0,21.38-17.07,38.46-38.46,38.46h-10.31v33.07h-26.3 V143.71z M493.62,195.86c6.92,0,12.46-5.08,12.46-13.85c0-8.31-5.54-14.15-12.46-14.15h-10.31v28H493.62z"/>
  <path d="M132.3,143.4h37.84c21.38,0,38.46,16.92,38.46,38.3c0,13.23-6.77,24.3-16.15,31.53l19.38,40.15h-29.54 l-15.84-33.23h-7.54v33.23h-26.3L132.3,143.4z M170.14,195.4c6.61,0,11.84-5.08,11.84-13.69c0-8.46-5.23-14-11.84-14h-11.23v27.69 H170.14z"/>
  <path d="M219.05,198.63c0-31.69,25.69-57.07,57.07-57.07c31.69,0,57.22,25.38,57.22,57.07 c0,31.53-25.54,57.22-57.22,57.22C244.74,255.85,219.05,230.16,219.05,198.63 M307.19,198.63c0-18.77-12.31-32.61-31.07-32.61 c-18.61,0-30.76,13.84-30.76,32.61c0,18.61,12.15,32.61,30.76,32.61C294.89,231.24,307.19,217.24,307.19,198.63"/>
</svg>
