<svg xmlns="http://www.w3.org/2000/svg" viewBox="-4475 255 3475 205">
  <polygon points="-2171.7 406.49 -2171.7 262.28 -2126.5 262.28 -2126.5 451.67 -2165.61 451.67 -2352.47 307.46 -2352.47 451.67 -2395.92 451.67 -2395.92 262.28 -2356.81 262.28 -2171.7 406.49"/>
  <path d="M-4248.85,262.28l-13.31,22.31-161.35.31c-15.87,3.07-33.53,2.89-37.66,21.44-6.42,28.85,11.1,34.12,35.82,35.94,41.86,3.08,141.53-10.99,171.32,16.4,16.7,15.35,16.95,58.48,1.78,74.83-8.35,9-34.25,18.16-46.14,18.16h-212.93l13.33-22.66,171.78.06c14.91-2.41,34.98-1.28,39.68-19.42,3.4-13.15,1.61-31.13-11.11-38.64-21.79-12.86-118.21-3.96-150.2-6.23-24.07-1.71-52.86-7.34-56.32-35.79-4.04-33.24,4.5-53.92,37.69-62.72,3.92-1.04,15.53-3.98,18.61-3.98h199.02Z"/>
  <path d="M-1233.07,262.28c1.03.92-10.35,23.01-14.81,22.55l-159.85.06c-25.44,3.54-41.05,7.64-37.43,37.37,1.95,16.06,22.19,19,35.6,20.01,42.01,3.15,138.8-10.53,169.56,14.69,17.66,14.48,19.55,55.74,6.93,72.98-8.15,11.13-34.54,21.73-47.79,21.73h-212.93l11.28-20.87,3.49-1.72c55.23-2.66,113.76,3.59,168.6,0,22.12-1.45,43.1-4.7,42.65-32.04-.41-24.57-17.77-30.7-39.09-32.3-40.69-3.05-129.26,8.44-162.07-8.27-26.41-13.45-25.73-61.62-4.01-79.42,8.25-6.76,30.51-14.75,40.86-14.75h199.02Z"/>
  <path d="M-3550.09,262.28l-11.3,20.85h-165.13l-2.61,2.61v54.73h133.84c-.42,8.36-7.04,15.63-11.3,22.59h-122.54v63.42l2.61,2.61h181.64l-13.04,22.59h-214.67v-189.39h222.49Z"/>
  <polygon points="-3868.18 262.28 -3879.48 283.13 -3993.33 283.13 -3993.33 451.67 -4036.79 451.67 -4036.79 283.13 -4158.46 283.13 -4147.16 262.28 -3868.18 262.28"/>
  <polygon points="-1740.62 262.28 -1751.05 283.13 -1865.77 283.13 -1865.77 451.67 -1909.23 451.67 -1909.23 283.13 -2030.9 283.13 -2019.6 262.28 -1740.62 262.28"/>
  <polygon points="-3378.01 262.28 -3378.01 426.48 -3375.4 429.08 -3205.93 429.08 -3218.96 451.67 -3421.46 451.67 -3421.46 262.28 -3378.01 262.28"/>
  <polygon points="-3051.23 262.28 -3051.23 426.48 -3048.62 429.08 -2879.14 429.08 -2891.31 451.67 -3094.68 451.67 -3094.68 262.28 -3051.23 262.28"/>
  <polygon points="-2491.52 451.67 -2541.06 451.67 -2641.01 262.28 -2598.42 262.28 -2491.52 451.67"/>
  <polygon points="-2646.22 262.28 -2745.3 451.67 -2795.71 451.67 -2688.81 262.28 -2646.22 262.28"/>
  <rect x="-1645.02" y="262.28" width="43.46" height="189.39"/>
</svg>
