<?xml version="1.0" encoding="UTF-8"?>
<svg id="Camada_1" xmlns="http://www.w3.org/2000/svg" version="1.1" viewBox="0 0 1920 1080">
  <!-- Generator: Adobe Illustrator 29.8.6, SVG Export Plug-In . SVG Version: 2.1.1 Build 1)  -->
  <path d="M-735.5,218.8h228v217.01h-228v-217.01ZM-511.48,221.78h-220.04v211.04h220.04v-211.04Z"/>
  <path d="M-662.32,247.67c3.7.52,10.95,4.47,13.96,6.94,18.88,15.47,13.89,45.85-8.37,54.9l-.2,1.35,20.98,42.33c-3.81-.52-10.21,1.4-12.99-1.43l-20.37-38.37-11.01-1.94-.43-11.01h16.43c.66,0,6.37-2.84,7.4-3.55,12.7-8.72,11.68-28.54-2.02-35.68-.85-.44-6.03-2.58-6.38-2.58h-32.86l-1.49,1.49v93.08h-10.95v-105.52h48.29Z"/>
  <path d="M-529.41,247.67l-50.28,106.49-6.1-11.43c14.51-31.79,30.01-63.15,44.59-94.91l11.79-.16Z"/>
  <polygon points="-618.17 247.83 -589.61 308.31 -594.14 320.33 -597.05 320.3 -629.96 247.67 -618.17 247.83"/>
  <polygon points="-570.22 400.97 -570.22 370.11 -564.25 370.11 -564.25 414.91 -596.11 383.05 -596.11 413.91 -602.09 413.91 -602.09 368.12 -570.22 400.97"/>
  <path d="M-681.74,370.11c3.71.27,7.8-.39,11.45,0,15.97,1.71,17.05,20.86,2.49,25.38l12.93,18.42c-2.12-.18-5.1.62-6.96-.5-2.04-1.22-8.3-13.17-10.97-15.91-.95-.98-1.31-1.87-2.97-1.51v17.92h-5.97v-43.8ZM-675.76,391.02c8.02-.58,14.17-2.5,11.45-11.95-1.32-2.75-8.47-3.95-11.45-3.98v15.93Z"/>
  <path d="M-609.06,413.9l-6.83-.12-4.79-10.86-19.09.2c-2.78,5.44-3.24,12.63-11.11,10.78l21.41-45.78,20.41,45.78ZM-636.93,397.98h13.94c-1.32-4.51-3.31-9.85-5.47-13.99-.6-1.15.01-2.38-1.99-1.95l-6.48,15.93Z"/>
  <path d="M-528.41,377.06l-4.94,1.99c-2.3-7.65-16.13-4-12.48,3.98,2.4,5.24,19.03,4.23,19.45,17.47.55,17.58-27.57,19.95-27.87,1.51l5.91-1.05c-.34,10.29,15.79,10.82,15.79.5,0-9.15-14.61-8.44-18.45-15.25-8.71-15.48,18.32-24.81,22.58-9.15Z"/>
  <path d="M-688.71,370.11v4.98s-9.96,0-9.96,0v38.82h-5.97v-37.33c-1.44-2.97-10.21-.72-10.96-1.49v-4.98h26.89Z"/>
</svg>