<?xml version="1.0" encoding="UTF-8"?>
<svg id="Camada_1" xmlns="http://www.w3.org/2000/svg" version="1.1" viewBox="0 0 4678.08 6615.12">
  <!-- Generator: Adobe Illustrator 29.8.6, SVG Export Plug-In . SVG Version: 2.1.1 Build 1)  -->
  <defs>
    <style>
      .st0 {
        fill: #fff;
      }
    </style>
  </defs>
  <polygon class="st0" points="8050.42 4468.75 8058.21 4468.75 8056.26 4476.15 8038.75 4489.09 8017.35 4507.59 7997.89 4520.54 7974.55 4531.64 7931.74 4540.89 7916.18 4542.74 7859.76 4544.59 7632.13 4544.59 7457.03 4542.74 7293.6 4544.59 7250.79 4548.28 7221.61 4553.83 7196.32 4563.08 7172.97 4577.88 7159.35 4588.98 7149.63 4598.23 7132.11 4622.27 7116.55 4648.17 7100.99 4677.77 7083.48 4703.66 7062.07 4727.71 7042.62 4742.51 7011.49 4755.46 6976.47 4762.85 6958.96 4762.85 6953.12 4725.86 6955.07 4716.61 6978.41 4714.76 6999.82 4707.36 7019.27 4696.26 7034.84 4681.47 7052.35 4651.87 7075.69 4609.33 7093.2 4583.43 7110.71 4561.23 7137.95 4535.34 7163.24 4520.54 7178.81 4513.14 7211.88 4505.74 7274.14 4502.04 7490.1 4496.49 7708 4492.79 7799.45 4489.09 7875.32 4483.54 7957.04 4479.84 8015.4 4474.3 8050.42 4468.75"/>
  <polygon class="st0" points="7322.27 4566.62 7431 4566.62 7511.13 4570.25 7562.63 4572.07 7768.66 4573.88 7883.12 4575.7 7873.58 4584.78 7846.88 4601.13 7808.72 4617.47 7768.66 4630.18 7740.05 4633.82 7698.08 4633.82 7612.23 4626.55 7518.76 4617.47 7360.42 4606.57 7331.81 4604.76 7238.33 4604.76 7188.73 4610.21 7177.29 4612.02 7181.1 4604.76 7205.9 4590.23 7230.7 4579.33 7263.13 4572.07 7322.27 4566.62"/>
  <polygon class="st0" points="7238.15 4626.91 7329.86 4626.91 7371.03 4628.95 7432.79 4635.09 7496.43 4643.26 7591.88 4653.49 7657.38 4659.62 7692.95 4661.67 7692.95 4665.76 7623.7 4704.61 7606.85 4710.75 7531.99 4710.75 7444.02 4694.39 7402.85 4686.21 7311.14 4671.89 7266.22 4667.8 7230.66 4665.76 7144.57 4663.71 7146.44 4653.49 7159.54 4631 7161.41 4628.95 7238.15 4626.91"/>
  <polygon class="st0" points="7132.64 4680.57 7224.5 4686.7 7295.74 4696.93 7359.48 4711.24 7451.33 4729.64 7490.7 4735.78 7535.69 4737.82 7548.82 4739.87 7546.94 4746 7500.08 4774.63 7473.83 4786.9 7460.71 4790.99 7421.34 4790.99 7365.1 4780.77 7295.74 4762.36 7233.87 4743.96 7158.89 4723.51 7115.77 4715.33 7113.89 4707.15 7128.89 4682.61 7132.64 4680.57"/>
  <polygon class="st0" points="7096.25 4726.05 7125.67 4734.23 7173.48 4752.63 7208.42 4766.94 7267.27 4787.39 7327.95 4803.75 7397.83 4816.02 7405.18 4820.11 7379.44 4834.43 7340.82 4850.79 7320.59 4856.92 7293.01 4856.92 7256.23 4848.74 7204.74 4828.29 7167.97 4809.89 7134.87 4789.44 7114.64 4777.17 7088.89 4760.81 7077.86 4752.63 7081.54 4742.41 7096.25 4726.05"/>
  <polygon class="st0" points="7045.34 4764.9 7052.78 4766.77 7075.1 4785.51 7106.72 4808 7138.33 4828.61 7177.39 4847.35 7220.17 4864.22 7246.21 4869.84 7253.65 4869.84 7253.65 4873.59 7236.91 4879.21 7207.15 4884.83 7177.39 4888.58 7134.61 4888.58 7112.3 4879.21 7089.98 4858.6 7069.52 4836.11 7056.5 4821.12 7041.62 4802.38 7026.74 4781.76 7026.74 4776.14 7045.34 4764.9"/>
  <polygon class="st0" points="6977.66 4785.35 6998.11 4785.35 7018.56 4816.91 7039.01 4842.91 7063.55 4868.91 7081.95 4889.33 7086.04 4896.76 7032.87 4896.76 7010.38 4893.04 6998.11 4885.62 6989.93 4876.33 6979.71 4850.34 6967.44 4809.49 6965.39 4800.2 6965.39 4787.21 6977.66 4785.35"/>
  <g>
    <path class="st0" d="M6871.93,5006.61v40.09h-114.21c-20.13,0-29.05,11.21-29.05,27.18,0,13.93,6.93,27.18,33.01,27.18h52.15c60.73,0,74.93,34.65,74.93,67.6,0,38.73-20.13,67.26-70.97,67.26h-124.11v-40.09h125.43c21.12,0,30.7-11.89,30.7-28.54,0-14.95-7.59-28.54-34.99-28.54h-51.82c-59.41,0-73.28-34.31-73.28-66.25,0-38.05,19.8-65.91,69.32-65.91h112.89Z"/>
    <path class="st0" d="M7027.07,5006.61c64.7,0,100.67,38.05,100.67,115.17s-35.65,114.15-100.67,114.15h-30.37c-65.03,0-100.67-37.37-100.67-114.15s35.98-115.17,100.67-115.17h30.37ZM6996.7,5046.7c-42.91,0-61.72,22.42-61.72,75.08s18.48,74.06,61.72,74.06h30.37c42.91,0,61.39-21.74,61.39-74.4s-18.48-74.74-61.39-74.74h-30.37Z"/>
    <path class="st0" d="M7156.46,5006.61l67.67,184.47c1.98,5.44,5.61,7.81,10.89,7.81s8.58-2.38,10.89-7.81l70.97-184.47h43.24l-78.56,203.83c-8.25,21.4-23.44,29.56-46.54,29.56-21.79,0-38.62-7.13-46.87-29.56l-74.6-203.83h42.91Z"/>
    <path class="st0" d="M7486.88,5006.61c50.17,0,71.63,31.93,71.63,68.62,0,28.54-13.2,59.11-47.2,68.96l51.82,91.72h-43.24l-50.83-88.67h-58.09c-3.63,0-5.61,1.7-5.61,5.77v82.89h-38.95v-90.71c0-25.82,10.56-36.35,34.99-36.35h86.81c22.12,0,31.03-15.63,31.03-31.93s-9.57-30.23-31.03-30.23h-122.13v-40.09h120.81Z"/>
    <path class="st0" d="M7598.11,5235.93h-42.91l78.23-203.83c8.25-21.4,23.44-29.56,46.87-29.56s38.29,8.15,46.21,29.56l75.26,203.83h-43.24l-67.67-184.47c-1.98-5.44-5.61-7.81-10.89-7.81s-8.91,2.38-11.22,7.81l-70.64,184.47Z"/>
    <path class="st0" d="M7846.99,5235.93h-38.95v-183.45c0-29.9,16.5-49.94,51.16-49.94,31.03,0,44.89,16.31,54.13,42.46l65.03,146.42c2.64,5.44,6.93,9.51,14.19,9.51,8.25,0,13.2-5.1,13.2-12.91v-181.41h39.28v183.11c0,30.24-16.83,50.28-51.16,50.28-31.03,0-45.22-16.31-54.46-42.46l-65.03-146.42c-2.97-6.79-6.93-9.85-13.86-9.85-8.91,0-13.53,5.1-13.53,13.25v181.41Z"/>
    <path class="st0" d="M8194.9,5006.61c64.7,0,100.67,38.05,100.67,115.17s-35.65,114.15-100.67,114.15h-30.37c-65.03,0-100.67-37.37-100.67-114.15s35.98-115.17,100.67-115.17h30.37ZM8164.53,5046.7c-42.91,0-61.72,22.42-61.72,75.08s18.48,74.06,61.72,74.06h30.37c42.91,0,61.39-21.74,61.39-74.4s-18.48-74.74-61.39-74.74h-30.37Z"/>
  </g>
</svg>